<svg width="40" height="40" viewBox="0 0 40 40" fill="none" xmlns="http://www.w3.org/2000/svg">
<path d="M35.0583 8.76166C36.575 10.5817 37.3317 12.705 37.3317 15.1317C37.3317 23.9267 32.3283 26.505 27.6267 27.2633C28.2333 28.325 28.385 29.5383 28.385 30.7517V36.9683C28.385 37.7267 27.93 38.1817 27.3233 38.1817C27.1634 38.1839 27.0046 38.1541 26.8564 38.0939C26.7081 38.0337 26.5735 37.9444 26.4604 37.8313C26.3473 37.7182 26.258 37.5835 26.1978 37.4353C26.1376 37.2871 26.1077 37.1283 26.11 36.9683V30.7517C26.1899 30.1161 26.1219 29.4706 25.9115 28.8655C25.701 28.2605 25.3537 27.7122 24.8967 27.2633L25.655 25.2917C30.3567 24.685 35.21 23.1683 35.21 14.98C35.21 13.0083 34.4517 11.1883 33.0867 9.67166L32.7833 8.46C33.3601 7.00674 33.4131 5.39808 32.9333 3.91C32.1767 4.06 30.66 4.365 28.0833 6.185L27.1717 6.335C23.5896 5.42544 19.837 5.42544 16.255 6.335L15.3433 6.185C12.6167 4.51666 11.1 4.06166 10.34 4.06166C9.88499 5.57833 9.88499 7.245 10.49 8.61166L10.1883 9.82333C8.67166 11.34 7.91333 13.3117 7.91333 15.1317C7.91333 23.1683 12.4633 24.8367 17.4667 25.4433L18.0733 27.415C17.1633 28.325 16.7083 29.5383 16.86 30.7517V37.12C16.8622 37.28 16.8324 37.4387 16.7722 37.587C16.712 37.7352 16.6227 37.8698 16.5096 37.983C16.3965 38.0961 16.2618 38.1854 16.1136 38.2455C15.9654 38.3057 15.8066 38.3356 15.6467 38.3333C15.4867 38.3356 15.3279 38.3057 15.1797 38.2455C15.0315 38.1854 14.8968 38.0961 14.7837 37.983C14.6706 37.8698 14.5813 37.7352 14.5211 37.587C14.4609 37.4387 14.4311 37.28 14.4333 37.12V33.6333C9.42999 34.695 7.45833 32.1167 5.94166 30.1467C5.18333 29.2367 4.57666 28.4783 3.81833 28.3267C3.66833 28.175 3.21166 27.5683 3.36333 26.9617C3.51499 26.355 4.12166 25.9 4.72999 26.2033C6.24666 26.5067 7.15499 27.72 8.06333 28.7817C9.42999 30.6017 10.795 32.2683 14.8883 31.36V30.7533C14.7383 29.54 15.04 28.3267 15.6467 27.265C11.0967 26.355 5.78999 23.7767 5.78999 15.1333C5.78999 12.7067 6.54833 10.5833 8.06499 8.76333C7.60999 6.64166 7.76166 4.36666 8.51999 2.54666L9.27833 1.94C9.58166 1.78833 11.705 1.33333 16.1 4.06166C19.7339 3.15178 23.5361 3.15178 27.17 4.06166C31.4183 1.18 33.6933 1.63333 33.9967 1.78666L34.755 2.39333C35.5133 4.51666 35.665 6.64 35.0583 8.76166V8.76166Z" fill="#8892B0"/>
</svg>
