<svg width="32" height="32" viewBox="0 0 32 32" fill="none" xmlns="http://www.w3.org/2000/svg">
<path d="M24.9693 0.473755H7.03079C3.41516 0.473755 0.473755 3.41526 0.473755 7.03079V24.9695C0.473755 28.5849 3.41526 31.5264 7.03079 31.5264H24.9695C28.5849 31.5264 31.5264 28.5849 31.5264 24.9694V7.03079C31.5263 3.41516 28.5849 0.473755 24.9693 0.473755ZM29.9474 24.9693C29.9474 27.7142 27.7142 29.9474 24.9693 29.9474H7.03079C4.28587 29.9474 2.05266 27.7142 2.05266 24.9693V7.03079C2.05266 4.28587 4.28587 2.05266 7.03079 2.05266H24.9695C27.7143 2.05266 29.9475 4.28587 29.9475 7.03079V24.9693H29.9474Z" fill="#8892B0"/>
<path d="M24.1447 15.5332C23.9113 11.3796 20.5313 8.0381 16.3754 7.8507C11.5797 7.63449 7.63176 11.5843 7.8508 16.3806C8.04074 20.5368 11.385 23.9152 15.5391 24.1452C17.2921 24.2424 18.9338 23.7813 20.305 22.9251C20.7321 22.6584 20.8018 22.0644 20.4457 21.7084C20.4419 21.7046 20.4382 21.7009 20.4345 21.6972C20.175 21.4376 19.7726 21.3985 19.4608 21.5922C18.4362 22.2288 17.2252 22.5923 15.9297 22.5787C12.272 22.5402 9.32072 19.469 9.42375 15.8125C9.52736 12.1327 12.6674 9.19914 16.4215 9.43439C19.6565 9.63713 22.2897 12.2166 22.5562 15.447C22.6647 16.7629 22.3817 18.0062 21.813 19.0756C21.6502 19.3818 21.7004 19.7574 21.9456 20.0027C21.9496 20.0067 21.9537 20.0108 21.9577 20.0148C22.3262 20.3832 22.9493 20.2966 23.1955 19.8374C23.8774 18.5653 24.2325 17.0935 24.1447 15.5332Z" fill="#8892B0"/>
<path d="M24.4211 8.63157C25.5838 8.63157 26.5263 7.689 26.5263 6.52629C26.5263 5.36358 25.5838 4.42102 24.4211 4.42102C23.2584 4.42102 22.3158 5.36358 22.3158 6.52629C22.3158 7.689 23.2584 8.63157 24.4211 8.63157Z" fill="#8892B0"/>
</svg>
