<svg width="36" height="36" viewBox="0 0 36 36" fill="none" xmlns="http://www.w3.org/2000/svg">
<path d="M5.00231 9.64085C5.0321 9.64145 5.06158 9.64175 5.09126 9.64175C6.24166 9.64175 7.3801 9.17272 8.22851 8.34593C9.12273 7.47462 9.61665 6.30519 9.61944 5.0531C9.62193 3.8288 9.14305 2.67282 8.27094 1.79802C7.40062 0.925014 6.25012 0.443639 5.0315 0.442444C5.0301 0.442543 5.02941 0.442444 5.02831 0.442444C3.79813 0.442444 2.63867 0.920233 1.76347 1.78796C0.886183 2.65778 0.403015 3.81137 0.403015 5.03627C0.402716 6.28946 0.895844 7.46316 1.79146 8.34105C2.6555 9.18826 3.82582 9.66087 5.00231 9.64085ZM2.46477 2.49523C3.15222 1.81376 4.06257 1.43846 5.02841 1.43846C5.02911 1.43846 5.03 1.43846 5.0308 1.43846C5.98309 1.43936 6.88329 1.81685 7.56566 2.50121C8.24982 3.18746 8.62552 4.09304 8.62353 5.05091C8.62143 6.03278 8.23428 6.94962 7.53349 7.63248C6.85122 8.29743 5.93807 8.66635 5.01506 8.64474C5.01118 8.64464 5.0072 8.64464 5.00331 8.64464C4.99992 8.64464 4.99654 8.64474 4.99335 8.64474C4.081 8.66446 3.16576 8.29334 2.48877 7.6297C1.78598 6.94065 1.39893 6.01974 1.39913 5.03627C1.39913 4.0789 1.77762 3.17651 2.46477 2.49523Z" fill="#8892B0"/>
<path d="M7.41515 11.7823H2.60698C1.70897 11.7823 0.978394 12.5126 0.978394 13.4102V33.9245C0.978394 34.8221 1.70897 35.5524 2.60698 35.5524H7.41525C8.31315 35.5524 9.04363 34.8221 9.04363 33.9245V13.4102C9.04363 12.5126 8.31315 11.7823 7.41515 11.7823ZM8.04762 33.9245C8.04762 34.2729 7.76385 34.5564 7.41515 34.5564H2.60698C2.25817 34.5564 1.97441 34.2729 1.97441 33.9245V13.4102C1.97441 13.0618 2.25817 12.7783 2.60698 12.7783H7.41515C7.76385 12.7783 8.04762 13.0618 8.04762 13.4102V33.9245Z" fill="#8892B0"/>
<path fill-rule="evenodd" clip-rule="evenodd" d="M2.60698 11.7823H7.41515C8.31315 11.7823 9.04363 12.5126 9.04363 13.4102V33.9245C9.04363 34.8221 8.31315 35.5524 7.41525 35.5524H2.60698C1.70897 35.5524 0.978394 34.8221 0.978394 33.9245V13.4102C0.978394 12.5126 1.70897 11.7823 2.60698 11.7823ZM7.41525 34.5564C7.76391 34.5563 8.04762 34.2729 8.04762 33.9245V13.4102C8.04762 13.0618 7.76385 12.7783 7.41515 12.7783H2.60698C2.25817 12.7783 1.97441 13.0618 1.97441 13.4102V33.9245C1.97441 34.2729 2.25817 34.5564 2.60698 34.5564H7.41525C7.41528 34.5564 7.41521 34.5564 7.41525 34.5564Z" fill="#8892B0"/>
<path d="M27.3116 11.2005H26.0784C23.9067 11.2005 21.8538 12.1543 20.4517 13.784V12.7491C20.4517 12.2157 20.0177 11.7818 19.4844 11.7818H13.4848C12.9516 11.7818 12.5179 12.2157 12.5179 12.7491V34.5857C12.5179 35.1179 12.9512 35.5519 13.4847 35.553L19.6152 35.5546C20.1483 35.5546 20.582 35.1205 20.582 34.5871V21.9715C20.582 20.0531 22.1195 18.4749 24.0096 18.4534C24.9532 18.4458 25.8361 18.8034 26.5018 19.4691C27.1566 20.1234 27.5171 20.9941 27.5171 21.921V34.5886C27.5171 35.1208 27.9504 35.5548 28.4839 35.556L34.6285 35.5571C34.6293 35.5571 34.6299 35.5571 34.6306 35.5571C34.8881 35.5571 35.1301 35.457 35.3126 35.275C35.4956 35.0922 35.5965 34.8491 35.5965 34.5902V31.9442C35.5965 31.6692 35.3736 31.4462 35.0985 31.4462C34.8234 31.4462 34.6005 31.6692 34.6005 31.9442V34.5611L28.5133 34.56V21.9209C28.5133 20.7279 28.049 19.607 27.206 18.7646C26.3493 17.908 25.2123 17.4428 23.9983 17.4574C21.5654 17.4851 19.586 19.51 19.586 21.9714V34.5584L13.514 34.5568V12.7777H19.4557V15.2671C19.4557 15.5968 19.7669 15.8063 20.0768 15.7695C20.2569 15.7481 20.3852 15.636 20.4719 15.4834C20.5754 15.3015 20.685 15.1234 20.805 14.9518C22.0073 13.2264 23.9787 12.1964 26.0784 12.1964H27.3116C31.3232 12.1964 34.5884 15.4535 34.6011 19.4619C34.6007 19.4696 34.6005 19.4775 34.6005 19.4854V21.7849C34.6005 22.0599 34.8234 22.2829 35.0985 22.2829C35.3736 22.2829 35.5965 22.0599 35.5965 21.7849V19.5098C35.5969 19.5017 35.5971 19.4936 35.5971 19.4855C35.5971 14.9171 31.8802 11.2005 27.3116 11.2005Z" fill="#8892B0"/>
<path fill-rule="evenodd" clip-rule="evenodd" d="M19.4557 15.2671C19.4557 15.5968 19.7669 15.8063 20.0768 15.7695C20.2569 15.7481 20.3852 15.636 20.4719 15.4834C20.5133 15.4106 20.5557 15.3385 20.5993 15.2671C20.6647 15.1601 20.733 15.0548 20.805 14.9518C20.9304 14.7718 21.0643 14.5993 21.2057 14.4348C21.2061 14.4344 21.2064 14.434 21.2068 14.4336C21.2873 14.34 21.3703 14.2489 21.4557 14.1606C21.5826 14.0291 21.7148 13.9035 21.8516 13.784C22.0428 13.617 22.2432 13.462 22.4517 13.3194C23.5066 12.5979 24.7675 12.1964 26.0784 12.1964H27.3116C31.3228 12.1964 34.5877 15.4528 34.6011 19.4606C34.6011 19.461 34.6011 19.4614 34.6011 19.4619C34.6007 19.4696 34.6005 19.4775 34.6005 19.4854V21.7849C34.6005 22.0599 34.8234 22.2829 35.0985 22.2829C35.3736 22.2829 35.5965 22.0599 35.5965 21.7849V19.5098C35.5969 19.5017 35.5971 19.4936 35.5971 19.4855C35.5971 19.4855 35.5971 19.4854 35.5971 19.4855C35.5971 19.4766 35.5971 19.4676 35.5971 19.4587C35.5826 14.9026 31.8713 11.2005 27.3116 11.2005H26.0784C24.7692 11.2005 23.5033 11.5471 22.397 12.1794C22.1001 12.3491 21.8147 12.5394 21.5431 12.7491C21.5138 12.7717 21.4847 12.7945 21.4557 12.8176C21.0938 13.1057 20.7573 13.4288 20.4517 13.784V12.7491C20.4517 12.6292 20.4298 12.5144 20.3897 12.4083C20.2641 12.0755 19.9598 11.8296 19.5945 11.788C19.5583 11.7839 19.5216 11.7818 19.4844 11.7818H13.4848C12.9516 11.7818 12.5179 12.2157 12.5179 12.7491V34.5857C12.5179 35.1179 12.9512 35.5519 13.4847 35.553L19.6152 35.5546C20.1483 35.5546 20.582 35.1205 20.582 34.5871V21.9715C20.582 21.9715 20.582 21.9715 20.582 21.9715C20.582 20.0531 22.1196 18.4749 24.0096 18.4534C24.9529 18.446 25.8361 18.8035 26.5017 19.469C27.1563 20.1232 27.5171 20.9941 27.5171 21.9209C27.5171 21.9209 27.5171 21.921 27.5171 21.9209V34.5886C27.5171 35.1208 27.9504 35.5548 28.4839 35.556L34.6306 35.5571C34.8881 35.5571 35.1301 35.457 35.3126 35.275C35.4956 35.0922 35.5965 34.8491 35.5965 34.5902V31.9442C35.5965 31.6692 35.3736 31.4462 35.0985 31.4462C34.8234 31.4462 34.6005 31.6692 34.6005 31.9442V34.561L28.5133 34.56V21.921C28.5133 20.7281 28.0491 19.6071 27.2061 18.7648C26.3503 17.909 25.2142 17.4437 24.0016 17.4573C24.0005 17.4573 23.9994 17.4574 23.9983 17.4574C23.9983 17.4574 23.9983 17.4574 23.9983 17.4574C21.5654 17.4851 19.586 19.51 19.586 21.9714V34.5584L13.514 34.5568V12.7777H19.4557V15.2671Z" fill="#8892B0"/>
<path d="M35.0984 25.1713C34.8233 25.1713 34.6004 25.3943 34.6004 25.6693V28.3586C34.6004 28.6336 34.8233 28.8566 35.0984 28.8566C35.3735 28.8566 35.5964 28.6336 35.5964 28.3586V25.6693C35.5964 25.3943 35.3735 25.1713 35.0984 25.1713Z" fill="#8892B0"/>
<path fill-rule="evenodd" clip-rule="evenodd" d="M35.5964 26.9411V25.6693C35.5964 25.3943 35.3735 25.1713 35.0984 25.1713C34.8233 25.1713 34.6004 25.3943 34.6004 25.6693V26.9411C34.7562 26.8864 34.9238 26.8566 35.0984 26.8566C35.273 26.8566 35.4406 26.8864 35.5964 26.9411ZM35.5964 27.0868C35.4406 27.1415 35.273 27.1713 35.0984 27.1713C34.9238 27.1713 34.7562 27.1415 34.6004 27.0868V28.3586C34.6004 28.6336 34.8233 28.8566 35.0984 28.8566C35.3735 28.8566 35.5964 28.6336 35.5964 28.3586V27.0868Z" fill="#8892B0"/>
</svg>
