<svg width="120" height="120" viewBox="0 0 120 120" fill="none" xmlns="http://www.w3.org/2000/svg">
<g clip-path="url(#clip0_22_228)">
<path d="M70.6014 42.498L79.609 48.2212L97.609 19.8911L88.6016 14.1678L76.8201 25.7243L70.6014 42.498Z" fill="#B4B4B4"/>
<path d="M39.7714 110.92L57.7716 82.5903L48.764 76.8673L35.3536 88.15L30.764 105.197L39.7714 110.92Z" fill="#B4B4B4"/>
<path d="M70.6021 42.4966L88.6014 14.1678L79.5932 8.44427L61.5938 36.773L70.6021 42.4966Z" fill="#E0E0E0"/>
<path d="M48.7647 76.8675L39.7582 71.145L21.7588 99.4737L30.7654 105.196L48.7647 76.8675Z" fill="#E0E0E0"/>
<path d="M90.2407 11.5878L77.9293 27.0634L64.0307 52.8392L66.611 54.4787L71.5419 46.7181L80.5493 52.4411L101.829 18.9503L90.2407 11.5878ZM78.6678 44.0016L74.8209 41.5574L77.5421 37.2745L81.3891 39.7187L78.6678 44.0016ZM84.6681 34.5582L80.8211 32.114L83.5422 27.8313L87.3892 30.2755L84.6681 34.5582ZM86.821 22.6706L89.5423 18.3877L93.3892 20.8319L90.668 25.1149L86.821 22.6706Z" fill="#424242"/>
<path d="M40.7121 115.14L61.9911 81.6495L52.9835 75.9263L57.9144 68.1657L55.3342 66.5264L37.9041 90.0582L29.1242 107.778L40.7121 115.14ZM49.7047 81.0869L53.5517 83.5312L50.8304 87.8141L46.9834 85.3699L49.7047 81.0869ZM43.7046 90.5303L47.5516 92.9746L44.8303 97.2575L40.9834 94.8132L43.7046 90.5303ZM41.5517 102.418L38.8305 106.701L34.9835 104.256L37.7048 99.9736L41.5517 102.418Z" fill="#424242"/>
<path d="M78.6532 4.22513L57.3742 37.7157L66.3816 43.4388L61.4508 51.1996L64.0309 52.8389L90.2408 11.5877L78.6532 4.22513ZM69.6605 38.2785L65.8135 35.8343L68.5348 31.5513L72.3817 33.9956L69.6605 38.2785ZM75.6605 28.835L71.8135 26.3907L74.5346 22.108L78.3816 24.5523L75.6605 28.835ZM77.8134 16.9474L80.5347 12.6644L84.3816 15.1087L81.6604 19.3916L77.8134 16.9474Z" fill="#707070"/>
<path d="M47.8233 72.6476L38.8157 66.9245L17.5366 100.415L29.1244 107.777L55.3343 66.5263L52.7542 64.887L47.8233 72.6476ZM29.8231 100.978L25.9761 98.5334L28.6974 94.2505L32.5444 96.6948L29.8231 100.978ZM35.8232 91.5343L31.9762 89.0901L34.6975 84.8071L38.5444 87.2514L35.8232 91.5343ZM41.8231 82.091L37.9759 79.6466L40.6971 75.3636L44.5443 77.8081L41.8231 82.091Z" fill="#707070"/>
<path d="M26.4993 50.6197L61.5127 72.8665C63.8002 74.32 66.5167 74.7957 69.1621 74.2059C71.8068 73.6162 74.0636 72.032 75.517 69.7455L55.4864 52.4752L31.9396 42.0574L26.4993 50.6197Z" fill="#A8B2D1"/>
<path d="M72.3952 55.7388L37.3815 33.492L31.9395 42.0574L75.5169 69.7454C75.5172 69.7449 75.5175 69.7444 75.5178 69.744C78.518 65.0219 77.1172 58.7392 72.3952 55.7388Z" fill="#A8B2D1"/>
<path d="M79.0531 75.6119L87.3877 80.9075L89.0261 78.3288L81.4236 71.8812L79.0531 75.6119Z" fill="#424242"/>
<path d="M89.0264 78.3287L90.6669 75.7468L82.3329 70.4516L80.6924 73.0335L89.0264 78.3287Z" fill="#707070"/>
<path d="M70.7584 75.2977C71.3722 77.9375 72.9775 80.1802 75.2781 81.6127L78.9489 83.8984L84.3109 75.2866L79.5101 69.6244L72.0274 67.638C70.5951 69.9384 70.1444 72.6587 70.7584 75.2977Z" fill="#8892B0"/>
<path d="M86.004 64.3867C83.7033 62.9542 80.9825 62.5032 78.3425 63.1171C75.7028 63.7308 73.4601 65.3361 72.0276 67.6367C72.0274 67.6372 72.0271 67.6377 72.0268 67.6381L84.3106 75.2867L89.6745 66.6722L86.004 64.3867Z" fill="#8892B0"/>
<path d="M31.0297 58.5256L36.1901 61.8043L43.9057 49.6605L41.9945 46.5059L38.7457 46.3816L31.0297 58.5256Z" fill="#424242"/>
<path d="M43.9045 49.661L51.6216 37.5152L46.4613 34.2365L38.7442 46.3823L43.9045 49.661Z" fill="#707070"/>
</g>
<defs>
<clipPath id="clip0_22_228">
<rect width="100" height="100" fill="white" transform="translate(0 21.7618) rotate(-12.5692)"/>
</clipPath>
</defs>
</svg>
