<svg width="50" height="72" viewBox="0 0 50 72" fill="none" xmlns="http://www.w3.org/2000/svg">
<path d="M47.6398 25.3247L47.6389 25.3236C45.9223 23.2128 42.816 22.8947 40.7024 24.6128L47.6398 25.3247ZM47.6398 25.3247C49.3619 27.4372 49.0458 30.539 46.9332 32.2616C46.933 32.2617 46.9329 32.2617 46.9328 32.2618L28.0426 47.6491L47.6398 25.3247ZM25.7165 36.8219L40.7016 24.6135L28.0426 47.6492C27.1329 48.39 26.033 48.7592 24.9271 48.7592C23.8212 48.7592 22.7212 48.39 21.8116 47.6491L3.06651 32.3811C3.06632 32.3809 3.06613 32.3808 3.06594 32.3806C0.956232 30.657 0.637607 27.5544 2.35854 25.4432L2.35946 25.4421C4.07604 23.3313 7.18268 23.0132 9.29629 24.7316C9.29647 24.7317 9.29665 24.7319 9.29683 24.732L24.1375 36.8219L24.927 37.4651L25.7165 36.8219Z" fill="#667399" stroke="#170528" stroke-width="2.5"/>
<path d="M40.7027 46.352L40.7022 46.3524L25.7163 58.5564L24.927 59.1991L24.1377 58.5564L9.29621 46.4709L9.29571 46.4705C7.18358 44.7488 4.07641 45.0691 2.3587 47.1772L2.35856 47.1774C0.636925 49.2895 0.957234 52.3965 3.06519 54.1143C3.06525 54.1144 3.06532 54.1144 3.06538 54.1145L21.8116 69.3834C22.7212 70.1243 23.8212 70.4935 24.9271 70.4935C26.033 70.4935 27.1329 70.1243 28.0426 69.3835L40.7027 46.352ZM40.7027 46.352C42.8153 44.6298 45.9174 44.946 47.6398 47.059C49.3619 49.1715 49.0458 52.2733 46.9332 53.9958C46.933 53.9959 46.9329 53.996 46.9328 53.9961L28.0426 69.3834L40.7027 46.352Z" fill="#667399" stroke="#170528" stroke-width="2.5"/>
<path d="M40.7027 3.35199L40.7022 3.35238L25.7163 15.5564L24.927 16.1992L24.1377 15.5564L9.2962 3.4709L9.29571 3.4705C7.18358 1.74877 4.07641 2.06914 2.3587 4.17722L2.35856 4.17739C0.636925 6.28951 0.957234 9.39651 3.06519 11.1143C3.06526 11.1144 3.06532 11.1144 3.06538 11.1145L21.8116 26.3834C22.7212 27.1243 23.8212 27.4935 24.9271 27.4935C26.033 27.4935 27.1329 27.1243 28.0426 26.3835L40.7027 3.35199ZM40.7027 3.35199C42.8153 1.62984 45.9174 1.94602 47.6398 4.05902C49.3619 6.17151 49.0458 9.27333 46.9332 10.9959C46.933 10.996 46.9329 10.996 46.9328 10.9961L28.0426 26.3834L40.7027 3.35199Z" fill="#667399" stroke="#170528" stroke-width="2.5"/>
</svg>
