<svg xmlns="http://www.w3.org/2000/svg" fill="none" viewBox="0 0 42 42"><path fill="#170528" d="m21 0 18.187 10.5v21L21 42 2.813 31.5v-21L21 0Z"/><path fill="#64DAFF" d="M27.797 26.852a4.1 4.1 0 0 1 .176.668c.023.164-.008.289-.094.375-.086.078-.238.125-.457.14-.219.024-.52.035-.902.035-.399 0-.711-.008-.938-.023a2.408 2.408 0 0 1-.504-.059.494.494 0 0 1-.246-.152.805.805 0 0 1-.117-.246l-1.02-3.047H18l-.96 2.965a.938.938 0 0 1-.13.281.514.514 0 0 1-.246.176c-.11.039-.27.066-.48.082-.204.015-.473.023-.809.023-.36 0-.64-.011-.844-.035-.203-.023-.344-.078-.422-.164-.078-.094-.105-.223-.082-.387a3.83 3.83 0 0 1 .176-.656l4.676-13.453c.047-.133.101-.238.164-.316a.533.533 0 0 1 .293-.188c.14-.047.332-.074.574-.082.242-.016.563-.023.961-.023.461 0 .828.007 1.102.023.273.008.484.035.633.082.156.04.265.102.328.188.07.086.128.203.175.351l4.688 13.442ZM20.836 15.73h-.012l-2.144 6.446h4.3l-2.144-6.445Z"/></svg>